<svg width="36" height="36" viewBox="0 0 36 36" fill="none" xmlns="http://www.w3.org/2000/svg">
<path d="M22.2259 17.9974L35.1135 5.13804C35.6778 4.5736 35.9949 3.80804 35.9949 3.00979C35.9949 2.21155 35.6778 1.44599 35.1135 0.881549C34.5491 0.317103 33.7837 0 32.9855 0C32.1874 0 31.4219 0.317103 30.8576 0.881549L18 13.7709L5.14243 0.881549C4.57806 0.317103 3.81262 -5.9474e-09 3.01448 0C2.21635 5.94741e-09 1.4509 0.317103 0.886538 0.881549C0.322172 1.44599 0.00511486 2.21155 0.00511486 3.00979C0.00511485 3.80804 0.322172 4.5736 0.886538 5.13804L13.7741 17.9974L0.886538 30.8568C0.605624 31.1355 0.382658 31.467 0.230499 31.8323C0.0783397 32.1976 0 32.5894 0 32.9851C0 33.3808 0.0783397 33.7726 0.230499 34.1379C0.382658 34.5031 0.605624 34.8347 0.886538 35.1133C1.16516 35.3943 1.49664 35.6173 1.86187 35.7695C2.22709 35.9217 2.61883 36 3.01448 36C3.41014 36 3.80187 35.9217 4.1671 35.7695C4.53232 35.6173 4.86381 35.3943 5.14243 35.1133L18 22.224L30.8576 35.1133C31.1362 35.3943 31.4677 35.6173 31.8329 35.7695C32.1981 35.9217 32.5899 36 32.9855 36C33.3812 36 33.7729 35.9217 34.1381 35.7695C34.5034 35.6173 34.8348 35.3943 35.1135 35.1133C35.3944 34.8347 35.6173 34.5031 35.7695 34.1379C35.9217 33.7726 36 33.3808 36 32.9851C36 32.5894 35.9217 32.1976 35.7695 31.8323C35.6173 31.467 35.3944 31.1355 35.1135 30.8568L22.2259 17.9974Z" fill="black"/>
</svg>
