<svg width="124" height="80" viewBox="0 0 124 80" fill="none" xmlns="http://www.w3.org/2000/svg">
<rect width="124" height="80" fill="#136439"/>
<path d="M18.508 64.092L17.872 66H16.18L19.3 57.3C18.996 57.084 18.844 56.796 18.844 56.436C18.844 56.268 18.876 56.112 18.94 55.968C19.012 55.824 19.108 55.7 19.228 55.596C19.348 55.492 19.488 55.412 19.648 55.356C19.808 55.292 19.984 55.26 20.176 55.26C20.56 55.26 20.872 55.368 21.112 55.584C21.352 55.792 21.472 56.072 21.472 56.424C21.472 56.608 21.428 56.776 21.34 56.928C21.26 57.08 21.148 57.208 21.004 57.312L24.124 66H22.348L20.176 59.448L20.092 59.112L20.008 59.46L18.964 62.64L18.82 62.88L18.976 62.856H19.912C20.088 62.856 20.24 62.896 20.368 62.976C20.496 63.056 20.608 63.156 20.704 63.276C20.8 63.396 20.88 63.532 20.944 63.684C21.016 63.828 21.072 63.964 21.112 64.092H18.508ZM20.164 56.88C20.308 56.88 20.416 56.836 20.488 56.748C20.568 56.66 20.608 56.548 20.608 56.412C20.608 56.276 20.568 56.164 20.488 56.076C20.416 55.98 20.308 55.932 20.164 55.932C20.028 55.932 19.924 55.98 19.852 56.076C19.78 56.164 19.744 56.28 19.744 56.424C19.744 56.536 19.78 56.64 19.852 56.736C19.924 56.832 20.028 56.88 20.164 56.88ZM33.2023 59.784C33.2023 60.264 33.0943 60.68 32.8783 61.032C32.6623 61.384 32.3743 61.668 32.0143 61.884L31.6783 62.016C31.7103 62.032 31.7543 62.052 31.8103 62.076C31.8663 62.1 31.9103 62.124 31.9423 62.148C32.1823 62.356 32.3703 62.604 32.5063 62.892C32.6423 63.172 32.7583 63.48 32.8543 63.816C32.9583 64.144 33.0583 64.496 33.1543 64.872C33.2583 65.24 33.3983 65.616 33.5743 66H31.8103C31.6663 65.696 31.5503 65.372 31.4623 65.028C31.3823 64.676 31.2943 64.336 31.1983 64.008C31.1023 63.68 30.9903 63.376 30.8623 63.096C30.7343 62.816 30.5583 62.588 30.3343 62.412C30.1663 62.428 29.9863 62.432 29.7943 62.424C29.6103 62.408 29.4143 62.368 29.2063 62.304C29.2543 62.192 29.3063 62.076 29.3623 61.956C29.4263 61.828 29.4983 61.712 29.5783 61.608C29.6663 61.496 29.7623 61.404 29.8663 61.332C29.9783 61.26 30.1023 61.216 30.2383 61.2C30.4063 61.184 30.5623 61.14 30.7063 61.068C30.8503 60.988 30.9743 60.888 31.0783 60.768C31.1903 60.64 31.2783 60.492 31.3423 60.324C31.4063 60.156 31.4383 59.976 31.4383 59.784C31.4383 59.576 31.3943 59.384 31.3063 59.208C31.2183 59.032 31.0983 58.88 30.9463 58.752C30.8023 58.624 30.6263 58.524 30.4183 58.452C30.2183 58.38 30.0023 58.344 29.7703 58.344C29.6583 58.344 29.5623 58.348 29.4823 58.356C29.4103 58.356 29.3383 58.36 29.2663 58.368C29.1943 58.368 29.1183 58.376 29.0383 58.392C28.9583 58.4 28.8663 58.408 28.7623 58.416V66H27.0343V57.384C27.3543 57.328 27.6383 57.284 27.8863 57.252C28.1343 57.212 28.3583 57.184 28.5583 57.168C28.7663 57.144 28.9663 57.128 29.1583 57.12C29.3503 57.112 29.5543 57.108 29.7703 57.108C30.2423 57.108 30.6863 57.168 31.1023 57.288C31.5183 57.408 31.8823 57.584 32.1943 57.816C32.5063 58.04 32.7503 58.32 32.9263 58.656C33.1103 58.984 33.2023 59.36 33.2023 59.784ZM39.5094 58.32C39.1494 58.32 38.8614 58.408 38.6454 58.584C38.4294 58.76 38.3214 58.984 38.3214 59.256C38.3214 59.528 38.4214 59.764 38.6214 59.964C38.8294 60.164 39.0814 60.352 39.3774 60.528C39.6814 60.704 40.0094 60.884 40.3614 61.068C40.7214 61.252 41.0494 61.464 41.3454 61.704C41.6494 61.944 41.9014 62.228 42.1014 62.556C42.3094 62.884 42.4134 63.28 42.4134 63.744C42.4134 64.128 42.3374 64.472 42.1854 64.776C42.0414 65.072 41.8334 65.324 41.5614 65.532C41.2974 65.732 40.9774 65.888 40.6014 66C40.2254 66.104 39.8094 66.156 39.3534 66.156C39.0094 66.156 38.6094 66.108 38.1534 66.012C37.7054 65.924 37.2054 65.752 36.6534 65.496L37.1094 64.38C37.5414 64.588 37.9454 64.732 38.3214 64.812C38.7054 64.884 39.0494 64.92 39.3534 64.92C39.5694 64.92 39.7654 64.892 39.9414 64.836C40.1254 64.772 40.2814 64.688 40.4094 64.584C40.5454 64.48 40.6494 64.36 40.7214 64.224C40.7934 64.088 40.8294 63.94 40.8294 63.78C40.8294 63.492 40.7294 63.244 40.5294 63.036C40.3294 62.828 40.0774 62.636 39.7734 62.46C39.4694 62.276 39.1414 62.096 38.7894 61.92C38.4454 61.744 38.1214 61.544 37.8174 61.32C37.5134 61.088 37.2614 60.82 37.0614 60.516C36.8614 60.204 36.7614 59.832 36.7614 59.4C36.7614 59.008 36.8294 58.668 36.9654 58.38C37.1094 58.092 37.3014 57.856 37.5414 57.672C37.7814 57.488 38.0614 57.352 38.3814 57.264C38.7014 57.168 39.0414 57.12 39.4014 57.12C39.5854 57.12 39.7614 57.128 39.9294 57.144C40.1054 57.152 40.2854 57.172 40.4694 57.204C40.6614 57.228 40.8574 57.268 41.0574 57.324C41.2654 57.372 41.4974 57.436 41.7534 57.516L41.3094 58.608C40.9494 58.504 40.6254 58.432 40.3374 58.392C40.0494 58.344 39.7734 58.32 39.5094 58.32ZM44.8272 58.512V57.276H51.0912V58.512H48.8112V66H47.1072V58.512H44.8272ZM55.6413 66H53.9733V57.276H55.6413V66ZM62.8013 64.908C63.2573 64.908 63.6493 64.812 63.9773 64.62C64.3133 64.428 64.5893 64.176 64.8053 63.864C65.0213 63.552 65.1773 63.2 65.2733 62.808C65.3773 62.416 65.4293 62.02 65.4293 61.62C65.4293 61.148 65.3653 60.712 65.2373 60.312C65.1173 59.912 64.9253 59.568 64.6613 59.28C64.3973 58.992 64.0573 58.768 63.6413 58.608C63.2333 58.44 62.7413 58.356 62.1653 58.356C62.0053 58.356 61.8373 58.364 61.6613 58.38C61.4933 58.396 61.3173 58.42 61.1333 58.452V66H59.4413V57.432C59.9773 57.32 60.4773 57.24 60.9413 57.192C61.4053 57.144 61.8133 57.12 62.1653 57.12C62.9653 57.12 63.6773 57.224 64.3013 57.432C64.9333 57.632 65.4653 57.924 65.8973 58.308C66.3373 58.692 66.6693 59.164 66.8933 59.724C67.1253 60.276 67.2413 60.908 67.2413 61.62C67.2413 62.252 67.1333 62.844 66.9173 63.396C66.7013 63.948 66.4053 64.428 66.0293 64.836C65.6533 65.244 65.2013 65.564 64.6733 65.796C64.1533 66.028 63.5893 66.144 62.9813 66.144C62.8693 66.144 62.7653 66.14 62.6693 66.132C62.5813 66.132 62.4853 66.124 62.3813 66.108C62.2773 66.092 62.1613 66.072 62.0333 66.048C61.9133 66.024 61.7653 65.988 61.5893 65.94C61.6373 65.836 61.6973 65.724 61.7693 65.604C61.8413 65.484 61.9253 65.372 62.0213 65.268C62.1173 65.164 62.2293 65.08 62.3573 65.016C62.4853 64.944 62.6333 64.908 62.8013 64.908ZM70.2062 57.276H75.4382V58.512H71.9222V64.764H75.6302V66H70.2062V57.276ZM72.3782 62.028C72.4182 61.9 72.4702 61.764 72.5342 61.62C72.5982 61.476 72.6782 61.344 72.7742 61.224C72.8702 61.104 72.9822 61.008 73.1102 60.936C73.2462 60.856 73.4022 60.816 73.5782 60.816H75.0302V62.028H72.3782ZM85.2288 59.784C85.2288 60.264 85.1208 60.68 84.9048 61.032C84.6888 61.384 84.4008 61.668 84.0408 61.884L83.7048 62.016C83.7368 62.032 83.7808 62.052 83.8368 62.076C83.8928 62.1 83.9368 62.124 83.9688 62.148C84.2088 62.356 84.3968 62.604 84.5328 62.892C84.6688 63.172 84.7848 63.48 84.8808 63.816C84.9848 64.144 85.0848 64.496 85.1808 64.872C85.2848 65.24 85.4248 65.616 85.6008 66H83.8368C83.6928 65.696 83.5768 65.372 83.4888 65.028C83.4088 64.676 83.3208 64.336 83.2248 64.008C83.1288 63.68 83.0168 63.376 82.8888 63.096C82.7608 62.816 82.5848 62.588 82.3608 62.412C82.1928 62.428 82.0128 62.432 81.8208 62.424C81.6368 62.408 81.4408 62.368 81.2328 62.304C81.2808 62.192 81.3328 62.076 81.3888 61.956C81.4528 61.828 81.5248 61.712 81.6048 61.608C81.6928 61.496 81.7888 61.404 81.8928 61.332C82.0048 61.26 82.1288 61.216 82.2648 61.2C82.4328 61.184 82.5888 61.14 82.7328 61.068C82.8768 60.988 83.0008 60.888 83.1048 60.768C83.2168 60.64 83.3048 60.492 83.3688 60.324C83.4328 60.156 83.4648 59.976 83.4648 59.784C83.4648 59.576 83.4208 59.384 83.3328 59.208C83.2448 59.032 83.1248 58.88 82.9728 58.752C82.8288 58.624 82.6528 58.524 82.4448 58.452C82.2448 58.38 82.0288 58.344 81.7968 58.344C81.6848 58.344 81.5888 58.348 81.5088 58.356C81.4368 58.356 81.3648 58.36 81.2928 58.368C81.2208 58.368 81.1448 58.376 81.0648 58.392C80.9848 58.4 80.8928 58.408 80.7888 58.416V66H79.0608V57.384C79.3808 57.328 79.6648 57.284 79.9128 57.252C80.1608 57.212 80.3848 57.184 80.5848 57.168C80.7928 57.144 80.9928 57.128 81.1848 57.12C81.3768 57.112 81.5808 57.108 81.7968 57.108C82.2688 57.108 82.7128 57.168 83.1288 57.288C83.5448 57.408 83.9088 57.584 84.2208 57.816C84.5328 58.04 84.7768 58.32 84.9528 58.656C85.1368 58.984 85.2288 59.36 85.2288 59.784ZM90.828 59.892L90.636 59.46L90.66 59.868V66H89.196V57.276H90.852L94.536 63.144L94.704 63.624L94.68 63.144V57.276H96.192V66H94.68L90.828 59.892ZM101.896 64.092L101.26 66H99.5678L102.7 57.276H104.38L107.512 66H105.736L103.576 59.508L103.48 59.064L103.372 59.532L102.352 62.64L102.208 62.88L102.388 62.856H103.3C103.476 62.856 103.628 62.896 103.756 62.976C103.884 63.056 103.996 63.156 104.092 63.276C104.188 63.396 104.268 63.532 104.332 63.684C104.404 63.828 104.46 63.964 104.5 64.092H101.896Z" fill="white"/>
<rect x="30" width="43" height="43" fill="#136439"/>
<circle cx="61" cy="31" r="15" fill="#136439" stroke="white" stroke-width="2"/>
<circle cx="61" cy="31" r="12" fill="white"/>
<path d="M63.571 35.912C63.1843 36.8207 62.643 37.4683 61.947 37.855C61.251 38.2223 60.439 38.406 59.511 38.406C58.641 38.406 57.8193 38.2417 57.046 37.913C56.292 37.5843 55.625 37.101 55.045 36.463C54.465 35.825 54.001 35.0517 53.653 34.143C53.3243 33.2343 53.16 32.2 53.16 31.04V30.576C53.16 29.4353 53.3243 28.4107 53.653 27.502C53.9817 26.5933 54.4263 25.82 54.987 25.182C55.5477 24.544 56.1953 24.0607 56.93 23.732C57.684 23.384 58.4863 23.21 59.337 23.21C60.3617 23.21 61.1833 23.384 61.802 23.732C62.44 24.08 62.9427 24.6213 63.31 25.356H63.832V23.616H67.486V33.65C67.486 34.23 67.747 34.52 68.269 34.52H68.82V38H66.326C65.6687 38 65.1273 37.8067 64.702 37.42C64.296 37.0333 64.093 36.5307 64.093 35.912H63.571ZM60.323 34.926C61.3863 34.926 62.237 34.578 62.875 33.882C63.513 33.1667 63.832 32.2 63.832 30.982V30.634C63.832 29.416 63.513 28.459 62.875 27.763C62.237 27.0477 61.3863 26.69 60.323 26.69C59.2597 26.69 58.409 27.0477 57.771 27.763C57.133 28.459 56.814 29.416 56.814 30.634V30.982C56.814 32.2 57.133 33.1667 57.771 33.882C58.409 34.578 59.2597 34.926 60.323 34.926Z" fill="#136439"/>
<circle cx="67.5" cy="10.5" r="2.5" fill="white"/>
</svg>
