<svg width="625" height="52" viewBox="0 0 625 52" fill="none" xmlns="http://www.w3.org/2000/svg">
<path d="M1.258 48V35.93H5.644C6.95867 35.93 8.058 36.202 8.942 36.746C9.826 37.2787 10.489 38.004 10.931 38.922C11.373 39.8287 11.594 40.8373 11.594 41.948C11.594 43.172 11.3503 44.2373 10.863 45.144C10.3757 46.0507 9.68433 46.7533 8.789 47.252C7.89367 47.7507 6.84533 48 5.644 48H1.258ZM9.231 41.948C9.231 41.166 9.08933 40.4803 8.806 39.891C8.52267 39.2903 8.11467 38.8257 7.582 38.497C7.04933 38.157 6.40333 37.987 5.644 37.987H3.604V45.943H5.644C6.41467 45.943 7.06633 45.773 7.599 45.433C8.13167 45.0817 8.534 44.6057 8.806 44.005C9.08933 43.393 9.231 42.7073 9.231 41.948ZM16.2431 35.93H18.6231L23.0601 48H20.6461L19.5241 44.991H15.3081L14.2031 48H11.7891L16.2431 35.93ZM19.0991 43.342L17.4331 38.361L15.6991 43.342H19.0991ZM24.384 48V35.93H26.73V48H24.384ZM29.2482 48V35.93H31.5942V45.943H37.7482V48H29.2482ZM38.7928 35.93L41.7678 41.608L44.7938 35.93H47.3268L42.9408 43.784V48H40.6118V43.75L36.2428 35.93H38.7928ZM52.1086 48V35.93H56.4946C57.8093 35.93 58.9086 36.202 59.7926 36.746C60.6766 37.2787 61.3396 38.004 61.7816 38.922C62.2236 39.8287 62.4446 40.8373 62.4446 41.948C62.4446 43.172 62.2009 44.2373 61.7136 45.144C61.2263 46.0507 60.5349 46.7533 59.6396 47.252C58.7443 47.7507 57.6959 48 56.4946 48H52.1086ZM60.0816 41.948C60.0816 41.166 59.9399 40.4803 59.6566 39.891C59.3733 39.2903 58.9653 38.8257 58.4326 38.497C57.8999 38.157 57.2539 37.987 56.4946 37.987H54.4546V45.943H56.4946C57.2653 45.943 57.9169 45.773 58.4496 45.433C58.9823 45.0817 59.3846 44.6057 59.6566 44.005C59.9399 43.393 60.0816 42.7073 60.0816 41.948ZM72.6585 45.943V48H64.2775V35.93H72.5055V37.987H66.6235V40.894H71.7065V42.798H66.6235V45.943H72.6585ZM81.6785 39.092C81.5765 38.9787 81.3612 38.8313 81.0325 38.65C80.7038 38.4573 80.3072 38.2873 79.8425 38.14C79.3892 37.9813 78.9188 37.902 78.4315 37.902C77.1508 37.902 76.5105 38.3553 76.5105 39.262C76.5105 39.5907 76.6125 39.8513 76.8165 40.044C77.0205 40.2367 77.3265 40.401 77.7345 40.537C78.1425 40.673 78.6525 40.8203 79.2645 40.979C80.0578 41.183 80.7435 41.421 81.3215 41.693C81.9108 41.965 82.3585 42.3277 82.6645 42.781C82.9818 43.223 83.1405 43.8123 83.1405 44.549C83.1405 45.4103 82.9308 46.1073 82.5115 46.64C82.1035 47.1613 81.5595 47.541 80.8795 47.779C80.1995 48.017 79.4628 48.136 78.6695 48.136C77.7628 48.136 76.8618 48 75.9665 47.728C75.0825 47.4447 74.2948 47.0593 73.6035 46.572L74.6405 44.549C74.7425 44.651 74.9238 44.787 75.1845 44.957C75.4452 45.1157 75.7625 45.28 76.1365 45.45C76.5105 45.6087 76.9185 45.7447 77.3605 45.858C77.8025 45.9713 78.2502 46.028 78.7035 46.028C79.9955 46.028 80.6415 45.6143 80.6415 44.787C80.6415 44.4357 80.5112 44.1523 80.2505 43.937C79.9898 43.7217 79.6215 43.5403 79.1455 43.393C78.6808 43.2457 78.1368 43.0813 77.5135 42.9C76.7428 42.6847 76.1025 42.4467 75.5925 42.186C75.0938 41.914 74.7198 41.5797 74.4705 41.183C74.2212 40.775 74.0965 40.2593 74.0965 39.636C74.0965 38.8087 74.2892 38.1173 74.6745 37.562C75.0712 36.9953 75.6038 36.5703 76.2725 36.287C76.9412 35.9923 77.6835 35.845 78.4995 35.845C79.3382 35.845 80.1202 35.981 80.8455 36.253C81.5708 36.525 82.1942 36.8367 82.7155 37.188L81.6785 39.092ZM84.9133 48V35.93H87.2593V48H84.9133ZM94.7925 48.085C93.9992 48.085 93.2569 47.9263 92.5655 47.609C91.8742 47.2917 91.2622 46.8553 90.7295 46.3C90.2082 45.7333 89.8002 45.076 89.5055 44.328C89.2109 43.58 89.0635 42.7697 89.0635 41.897C89.0635 41.0697 89.2109 40.2933 89.5055 39.568C89.8002 38.8313 90.2139 38.1853 90.7465 37.63C91.2792 37.0747 91.9025 36.6383 92.6165 36.321C93.3305 36.0037 94.1069 35.845 94.9455 35.845C96.0675 35.845 97.0365 36.0887 97.8525 36.576C98.6685 37.052 99.2805 37.6867 99.6885 38.48L97.9375 39.772C97.6315 39.1827 97.2009 38.7293 96.6455 38.412C96.1015 38.0833 95.5065 37.919 94.8605 37.919C94.1805 37.919 93.5799 38.106 93.0585 38.48C92.5485 38.854 92.1462 39.347 91.8515 39.959C91.5682 40.571 91.4265 41.2397 91.4265 41.965C91.4265 42.7243 91.5795 43.41 91.8855 44.022C92.1915 44.634 92.6109 45.1213 93.1435 45.484C93.6875 45.8353 94.3052 46.011 94.9965 46.011C96.1639 46.011 97.2179 45.4613 98.1585 44.362V43.512H95.7275V41.795H100.097V48H98.1585V46.64C97.1839 47.6033 96.0619 48.085 94.7925 48.085ZM104.442 40.248V48H102.096V35.93H103.966L110.205 43.886V35.947H112.551V48H110.596L104.442 40.248ZM119.146 48V35.947H121.492V41.676L126.558 35.93H129.142L124.518 41.285L129.431 48H126.779L123.022 42.798L121.492 44.396V48H119.146ZM133.799 35.93H136.179L140.616 48H138.202L137.08 44.991H132.864L131.759 48H129.345L133.799 35.93ZM136.655 43.342L134.989 38.361L133.255 43.342H136.655ZM149.838 37.987H145.979V48H143.65V37.987H139.791V35.93H149.838V37.987ZM153.488 35.93H155.868L160.305 48H157.891L156.769 44.991H152.553L151.448 48H149.034L153.488 35.93ZM156.344 43.342L154.678 38.361L152.944 43.342H156.344Z" fill="#0947FA"/>
<circle cx="14.5" cy="14.5" r="14.5" fill="#0947FA"/>
</svg>
