<svg width="42" height="42" viewBox="0 0 42 42" fill="none" xmlns="http://www.w3.org/2000/svg">
<path d="M38.5 22.75C38.5 24.6925 36.9425 26.25 35 26.25H7C6.07174 26.25 5.1815 25.8813 4.52513 25.2249C3.86875 24.5685 3.5 23.6783 3.5 22.75C3.5 21.8217 3.86875 20.9315 4.52513 20.2751C5.1815 19.6187 6.07174 19.25 7 19.25H22.75L27.125 22.75L31.5 19.25H35C35.9283 19.25 36.8185 19.6187 37.4749 20.2751C38.1313 20.9315 38.5 21.8217 38.5 22.75ZM21 5.25C5.25 5.25 5.25 15.75 5.25 15.75H36.75C36.75 15.75 36.75 5.25 21 5.25ZM5.25 31.5C5.25 34.405 7.595 36.75 10.5 36.75H31.5C34.405 36.75 36.75 34.405 36.75 31.5V29.75H5.25V31.5Z" fill="#0947FA"/>
</svg>
