<svg width="42" height="42" viewBox="0 0 42 42" fill="none" xmlns="http://www.w3.org/2000/svg">
<path d="M36.75 15.75H5.25C5.25 15.75 5.25 5.25 21 5.25C36.75 5.25 36.75 15.75 36.75 15.75ZM23.3625 29.75H5.25V31.5C5.25 34.405 7.595 36.75 10.5 36.75H23.3625C22.9775 35.6475 22.75 34.475 22.75 33.25C22.75 32.025 22.9775 30.8525 23.3625 29.75ZM38.255 24.0275C38.4629 23.4972 38.5382 22.9241 38.4745 22.358C38.4107 21.792 38.2097 21.2501 37.8889 20.7793C37.5682 20.3085 37.1374 19.9232 36.634 19.6567C36.1305 19.3902 35.5696 19.2506 35 19.25H19.25L14.875 22.75L10.5 19.25H7C5.075 19.25 3.5 20.825 3.5 22.75C3.5 24.675 5.075 26.25 7 26.25H25.445C27.37 24.115 30.1525 22.75 33.25 22.75C35.07 22.75 36.75 23.205 38.255 24.0275ZM39.445 29.54L36.96 27.0725L33.25 30.7825L29.54 27.0725L27.0725 29.54L30.7825 33.25L27.0725 36.96L29.54 39.445L33.25 35.7175L36.96 39.445L39.445 36.96L35.7175 33.25L39.445 29.54Z" fill="#0947FA"/>
</svg>
