<svg width="212" height="55" viewBox="0 0 212 55" fill="none" xmlns="http://www.w3.org/2000/svg">
<path d="M5.55 38.672C6.586 38.672 7.49133 38.8773 8.266 39.288C9.04067 39.6987 9.638 40.2773 10.058 41.024C10.4873 41.7613 10.702 42.6153 10.702 43.586C10.702 44.5473 10.4873 45.4013 10.058 46.148C9.638 46.8947 9.036 47.4733 8.252 47.884C7.47733 48.2947 6.57667 48.5 5.55 48.5H1.868V38.672H5.55ZM5.396 46.428C6.30133 46.428 7.006 46.1807 7.51 45.686C8.014 45.1913 8.266 44.4913 8.266 43.586C8.266 42.6807 8.014 41.976 7.51 41.472C7.006 40.968 6.30133 40.716 5.396 40.716H4.262V46.428H5.396ZM18.1579 46.764H14.4899L13.9019 48.5H11.3959L14.9519 38.672H17.7239L21.2799 48.5H18.7459L18.1579 46.764ZM17.5419 44.916L16.3239 41.318L15.1199 44.916H17.5419ZM24.7561 38.672V48.5H22.3621V38.672H24.7561ZM28.885 46.652H32.021V48.5H26.491V38.672H28.885V46.652ZM41.5909 38.672L38.1889 45.252V48.5H35.7949V45.252L32.3929 38.672H35.1089L37.0129 42.788L38.9029 38.672H41.5909ZM49.2043 38.672C50.2403 38.672 51.1456 38.8773 51.9203 39.288C52.695 39.6987 53.2923 40.2773 53.7123 41.024C54.1416 41.7613 54.3563 42.6153 54.3563 43.586C54.3563 44.5473 54.1416 45.4013 53.7123 46.148C53.2923 46.8947 52.6903 47.4733 51.9063 47.884C51.1316 48.2947 50.231 48.5 49.2043 48.5H45.5223V38.672H49.2043ZM49.0503 46.428C49.9556 46.428 50.6603 46.1807 51.1643 45.686C51.6683 45.1913 51.9203 44.4913 51.9203 43.586C51.9203 42.6807 51.6683 41.976 51.1643 41.472C50.6603 40.968 49.9556 40.716 49.0503 40.716H47.9163V46.428H49.0503ZM58.0882 40.59V42.578H61.2942V44.426H58.0882V46.582H61.7142V48.5H55.6942V38.672H61.7142V40.59H58.0882ZM66.8244 48.598C66.1057 48.598 65.4617 48.4813 64.8924 48.248C64.3231 48.0147 63.8657 47.6693 63.5204 47.212C63.1844 46.7547 63.0071 46.204 62.9884 45.56H65.5364C65.5737 45.924 65.6997 46.204 65.9144 46.4C66.1291 46.5867 66.4091 46.68 66.7544 46.68C67.1091 46.68 67.3891 46.6007 67.5944 46.442C67.7997 46.274 67.9024 46.0453 67.9024 45.756C67.9024 45.5133 67.8184 45.3127 67.6504 45.154C67.4917 44.9953 67.2911 44.8647 67.0484 44.762C66.8151 44.6593 66.4791 44.5427 66.0404 44.412C65.4057 44.216 64.8877 44.02 64.4864 43.824C64.0851 43.628 63.7397 43.3387 63.4504 42.956C63.1611 42.5733 63.0164 42.074 63.0164 41.458C63.0164 40.5433 63.3477 39.8293 64.0104 39.316C64.6731 38.7933 65.5364 38.532 66.6004 38.532C67.6831 38.532 68.5557 38.7933 69.2184 39.316C69.8811 39.8293 70.2357 40.548 70.2824 41.472H67.6924C67.6737 41.1547 67.5571 40.9073 67.3424 40.73C67.1277 40.5433 66.8524 40.45 66.5164 40.45C66.2271 40.45 65.9937 40.5293 65.8164 40.688C65.6391 40.8373 65.5504 41.0567 65.5504 41.346C65.5504 41.6633 65.6997 41.9107 65.9984 42.088C66.2971 42.2653 66.7637 42.4567 67.3984 42.662C68.0331 42.8767 68.5464 43.082 68.9384 43.278C69.3397 43.474 69.6851 43.7587 69.9744 44.132C70.2637 44.5053 70.4084 44.986 70.4084 45.574C70.4084 46.134 70.2637 46.6427 69.9744 47.1C69.6944 47.5573 69.2837 47.9213 68.7424 48.192C68.2011 48.4627 67.5617 48.598 66.8244 48.598ZM74.2757 38.672V48.5H71.8817V38.672H74.2757ZM82.5346 41.78C82.3572 41.4533 82.1006 41.206 81.7646 41.038C81.4379 40.8607 81.0506 40.772 80.6026 40.772C79.8279 40.772 79.2072 41.0287 78.7406 41.542C78.2739 42.046 78.0406 42.7227 78.0406 43.572C78.0406 44.4773 78.2832 45.1867 78.7686 45.7C79.2632 46.204 79.9399 46.456 80.7986 46.456C81.3866 46.456 81.8812 46.3067 82.2826 46.008C82.6932 45.7093 82.9919 45.28 83.1786 44.72H80.1406V42.956H85.3486V45.182C85.1712 45.7793 84.8679 46.3347 84.4386 46.848C84.0186 47.3613 83.4819 47.7767 82.8286 48.094C82.1752 48.4113 81.4379 48.57 80.6166 48.57C79.6459 48.57 78.7779 48.36 78.0126 47.94C77.2566 47.5107 76.6639 46.918 76.2346 46.162C75.8146 45.406 75.6046 44.5427 75.6046 43.572C75.6046 42.6013 75.8146 41.738 76.2346 40.982C76.6639 40.2167 77.2566 39.624 78.0126 39.204C78.7686 38.7747 79.6319 38.56 80.6026 38.56C81.7786 38.56 82.7679 38.8447 83.5706 39.414C84.3826 39.9833 84.9192 40.772 85.1806 41.78H82.5346ZM95.4666 48.5H93.0726L89.0686 42.438V48.5H86.6746V38.672H89.0686L93.0726 44.762V38.672H95.4666V48.5ZM105.867 48.5L102.563 44.16V48.5H100.169V38.672H102.563V42.984L105.839 38.672H108.653L104.845 43.488L108.793 48.5H105.867ZM116.049 46.764H112.381L111.793 48.5H109.287L112.843 38.672H115.615L119.171 48.5H116.637L116.049 46.764ZM115.433 44.916L114.215 41.318L113.011 44.916H115.433ZM127.323 38.672V40.59H124.719V48.5H122.325V40.59H119.721V38.672H127.323ZM134.642 46.764H130.974L130.386 48.5H127.88L131.436 38.672H134.208L137.764 48.5H135.23L134.642 46.764ZM134.026 44.916L132.808 41.318L131.604 44.916H134.026Z" fill="white"/>
<circle cx="13" cy="19.5" r="12" fill="white"/>
<rect y="50.5" width="82" height="3" fill="#5F67FF"/>
</svg>
